<?xml version="1.0" standalone="no"?><!DOCTYPE svg PUBLIC "-//W3C//DTD SVG 1.1//EN" "http://www.w3.org/Graphics/SVG/1.1/DTD/svg11.dtd"><svg t="1497420155891" class="icon" style="" viewBox="0 0 1024 1024" version="1.1" xmlns="http://www.w3.org/2000/svg" p-id="5764" xmlns:xlink="http://www.w3.org/1999/xlink" width="64" height="64"><defs><style type="text/css"></style></defs><path d="M478.016 270.72l68.096 0 0 67.52-68.096 0L478.016 270.72zM548.736 646.4l-18.112-255.808-38.208 0-17.088 255.808 0 106.944 73.344 0L548.672 646.4z" p-id="5765" fill="#ffffff"></path><path d="M512 6.464c-279.232 0-505.6 226.304-505.6 505.536s226.368 505.6 505.6 505.6 505.6-226.368 505.6-505.6S791.232 6.464 512 6.464zM512 954.112c-244.16 0-442.112-197.952-442.112-442.112s197.952-442.112 442.112-442.112 442.112 197.952 442.112 442.112S756.16 954.112 512 954.112z" p-id="5766" fill="#ffffff"></path></svg>