<?xml version="1.0" standalone="no"?><!DOCTYPE svg PUBLIC "-//W3C//DTD SVG 1.1//EN" "http://www.w3.org/Graphics/SVG/1.1/DTD/svg11.dtd"><svg t="1496065279175" class="icon" style="" viewBox="0 0 1024 1024" version="1.1" xmlns="http://www.w3.org/2000/svg" p-id="12693" xmlns:xlink="http://www.w3.org/1999/xlink" width="64" height="64"><defs><style type="text/css"></style></defs><path d="M511.998465 243.074108c49.504484 0 89.64367-40.137139 89.64367-89.641623s-40.139186-89.641623-89.64367-89.641623c-49.502437 0-89.6406 40.137139-89.6406 89.641623S462.495004 243.074108 511.998465 243.074108zM511.998465 422.358377c-49.502437 0-89.6406 40.138162-89.6406 89.642646s40.138162 89.641623 89.6406 89.641623c49.504484 0 89.64367-40.137139 89.64367-89.641623S561.502949 422.358377 511.998465 422.358377zM511.998465 780.924869c-49.502437 0-89.6406 40.09416-89.6406 89.642646 0 49.503461 40.138162 89.641623 89.6406 89.641623 49.504484 0 89.64367-40.138162 89.64367-89.641623C601.641111 821.019029 561.502949 780.924869 511.998465 780.924869z" p-id="12694" fill="#ffffff"></path></svg>