<?xml version="1.0" standalone="no"?><!DOCTYPE svg PUBLIC "-//W3C//DTD SVG 1.1//EN" "http://www.w3.org/Graphics/SVG/1.1/DTD/svg11.dtd"><svg t="1497232887537" class="icon" style="" viewBox="0 0 1024 1024" version="1.1" xmlns="http://www.w3.org/2000/svg" p-id="6654" xmlns:xlink="http://www.w3.org/1999/xlink" width="48" height="48"><defs><style type="text/css"></style></defs><path d="M460.8 486.4h25.6V243.2C486.4 108.884 377.516 0 243.2 0 108.884 0 0 108.884 0 243.2c0 134.316 108.884 243.2 243.2 243.2h217.6zM51.2 243.2c0-106.039 85.961-192 192-192s192 85.961 192 192v217.6l25.6-25.6H243.2c-106.039 0-192-85.961-192-192zM460.8 588.8l-25.6-25.6v217.6c0 106.039-85.961 192-192 192s-192-85.961-192-192 85.961-192 192-192h217.6zM0 780.8C0 915.116 108.884 1024 243.2 1024c134.316 0 243.2-108.884 243.2-243.2V537.6H243.2C108.884 537.6 0 646.484 0 780.8zM563.2 435.2l25.6 25.6V243.2c0-106.039 85.961-192 192-192s192 85.961 192 192-85.961 192-192 192H563.2z m460.8-192C1024 108.884 915.116 0 780.8 0 646.484 0 537.6 108.884 537.6 243.2v243.2h243.2c134.316 0 243.2-108.884 243.2-243.2zM1024 780.8c0-134.316-108.884-243.2-243.2-243.2H537.6v243.2c0 134.316 108.884 243.2 243.2 243.2 37.713 0 74.251-8.61 107.38-24.935 12.681-6.25 17.896-21.597 11.646-34.28-6.25-12.681-21.597-17.896-34.28-11.646C839.42 966.014 810.622 972.8 780.8 972.8c-106.039 0-192-85.961-192-192V563.2l-25.6 25.6h217.6c106.039 0 192 85.961 192 192 0 18.67-2.657 36.956-7.832 54.48-4.004 13.56 3.742 27.797 17.302 31.801 13.56 4.004 27.798-3.742 31.802-17.302 6.561-22.219 9.928-45.388 9.928-68.979z" fill="#ffffff" p-id="6655"></path></svg>