<?xml version="1.0" standalone="no"?><!DOCTYPE svg PUBLIC "-//W3C//DTD SVG 1.1//EN" "http://www.w3.org/Graphics/SVG/1.1/DTD/svg11.dtd"><svg t="1497233296230" class="icon" style="" viewBox="0 0 1024 1024" version="1.1" xmlns="http://www.w3.org/2000/svg" p-id="10566" xmlns:xlink="http://www.w3.org/1999/xlink" width="48" height="48"><defs><style type="text/css"></style></defs><path d="M558.243115 437.820682c-1.207499-2.701523-6.610545-7.163129-28.826478-7.163129h-34.239757c-14.111364 0-20.466083 1.801015-23.126674 3.60203a16.608226 16.608226 0 0 0-7.511053 9.005077c-1.207499 4.20578-1.801015 9.905584-1.801015 16.812887v36.94128c0 13.210857 1.504257 22.512691 4.20578 27.925971 1.504257 2.701523 6.610545 7.163129 26.728705 7.163129h35.733781c14.715114 0 24.027182-2.998281 27.322221-8.104569 3.305272-6.006795 5.116521-14.715114 5.11652-25.828197v-38.128313c-0.030699-8.708318-1.197266-16.219371-3.60203-22.226166z m0 0c-1.207499-2.701523-6.610545-7.163129-28.826478-7.163129h-34.239757c-14.111364 0-20.466083 1.801015-23.126674 3.60203a16.608226 16.608226 0 0 0-7.511053 9.005077c-1.207499 4.20578-1.801015 9.905584-1.801015 16.812887v36.94128c0 13.210857 1.504257 22.512691 4.20578 27.925971 1.504257 2.701523 6.610545 7.163129 26.728705 7.163129h35.733781c14.715114 0 24.027182-2.998281 27.322221-8.104569 3.305272-6.006795 5.116521-14.715114 5.11652-25.828197v-38.128313c-0.030699-8.708318-1.197266-16.219371-3.60203-22.226166zM924.923692 9.281369H99.076308C45.322141 9.281369 1.473558 54.623976 1.473558 110.516849v694.58816c0 55.851941 43.848583 101.204781 97.60275 101.20478h149.248911l81.086621 108.408842L473.810289 906.299556l451.358996 0.296759c54.654675-0.603749 97.295759-50.448895 97.295759-101.501539V110.516849c0.061398-55.892873-43.490427-101.23548-97.541352-101.23548z m-580.213455 674.787224a35.559819 35.559819 0 0 1-10.233041 25.828197c-6.303554 6.610545-15.349562 9.905584-26.728705 9.905584a18.419475 18.419475 0 0 1-3.909022-0.296758c-22.512691-0.296758-34.536515-12.61734-34.536515-35.437023V333.310629c0-9.905584 3.602031-18.317144 10.509334-24.620698a38.732062 38.732062 0 0 1 24.620698-10.233042c9.608826-0.900508 18.613903 2.097774 27.025462 8.41156a31.906623 31.906623 0 0 1 13.210857 26.431947z m27.629212-377.783427c-5.403046-2.097774-11.113083-6.610545-16.516129-13.210857l-27.629212-34.792341c-15.91238-14.111364-19.51441-19.217652-21.018667-21.919175a28.222729 28.222729 0 0 1-2.701523-14.418355c0-8.104569 2.701523-15.91238 7.511052-23.423432 5.403046-7.807811 13.517848-12.27965 24.32394-14.111365 5.710037-0.900508 13.517848 0 23.72019 3.305273 10.509334 2.998281 23.126674 13.814606 38.435304 32.745733s23.72019 32.13175 25.521206 40.246552c1.504257 8.104569 0.296758 17.119878-4.20578 26.431946a38.199944 38.199944 0 0 1-21.018668 19.514411 46.140784 46.140784 0 0 1-13.814606 2.404764 30.699125 30.699125 0 0 1-12.586641-2.773154zM548.634289 604.772755h-79.582364c-31.528001 0-51.953152-4.502538-62.421554-13.507615s-16.516129-19.524643-18.020386-30.934485a345.416317 345.416317 0 0 1-2.097773-38.742295v-80.759164a181.912779 181.912779 0 0 1 3.305272-36.634289c2.404765-10.509334 8.104569-20.466083 17.396171-30.033976 9.608826-9.905584 29.726986-14.418356 61.858736-14.418356h76.57385c33.339249 0 54.961666 4.502538 65.767757 14.418356 10.509334 9.312068 17.119878 19.821401 20.11816 31.231242a147.007875 147.007875 0 0 1 4.20578 35.437023v80.77963c0 15.349562-1.801015 28.826478-5.710037 39.642803-3.909022 11.409841-11.409841 21.622417-22.512691 30.330735S577.164008 604.772755 548.634289 604.772755z m206.30835 58.860454c0 15.011872-1.801015 26.124955-4.80953 33.329017q-4.942559 10.836791-25.214214 23.443898c-13.210857 7.807811-31.834992 11.716833-57.663189 11.716832-1.207499 0-2.404765-0.296758-3.60203-0.296758-10.509334 0-19.51441-1.207499-26.421714-3.909022-6.907303-3.008514-12.61734-7.163129-16.516129-12.914098s-6.006795-15.91238-6.303553-31.538234c0-11.7066 4.799296-26.124955 28.529719-30.627493a106.536195 106.536195 0 0 1 16.516129 0.296758c8.41156 0.603749 12.013591-0.603749 13.814607-1.801016 3.008514-2.404765 4.80953-8.41156 4.809529-17.723627V318.902506c0-8.41156-1.504257-15.349562-4.809529-20.721909-2.998281-5.403046-8.104569-9.905584-14.715114-13.210856a40.348883 40.348883 0 0 0-19.51441-5.116521H480.768757c-10.509334 0-18.920894-3.305272-25.521205-9.608826a32.193149 32.193149 0 0 1-10.233042-24.027182 37.289203 37.289203 0 0 1 9.005077-25.828197c6.303554-8.104569 15.349562-12.013591 26.728704-12.01359h176.898589c48.954871 0 77.771116 12.013591 85.885918 36.33753 7.511052 22.512691 11.409841 42.344326 11.409841 58.256706zM529.416637 430.616621h-34.239757c-14.111364 0-20.466083 1.801015-23.126674 3.60203a16.608226 16.608226 0 0 0-7.511053 9.005077c-1.207499 4.20578-1.801015 9.905584-1.801015 16.812887v36.94128c0 13.210857 1.504257 22.512691 4.20578 27.92597 1.504257 2.701523 6.610545 7.163129 26.728705 7.163129h35.733781c14.715114 0 24.027182-2.998281 27.322221-8.104568 3.305272-6.006795 5.116521-14.715114 5.11652-25.828197v-38.087381c0-8.708318-1.207499-16.219371-3.60203-22.226166-1.197266-2.701523-6.600312-7.204061-28.826478-7.204061z m28.826478 7.163129c-1.207499-2.701523-6.610545-7.163129-28.826478-7.163129h-34.239757c-14.111364 0-20.466083 1.801015-23.126674 3.60203a16.608226 16.608226 0 0 0-7.511053 9.005077c-1.207499 4.20578-1.801015 9.905584-1.801015 16.812887v36.94128c0 13.210857 1.504257 22.512691 4.20578 27.92597 1.504257 2.701523 6.610545 7.163129 26.728705 7.163129h35.733781c14.715114 0 24.027182-2.998281 27.322221-8.104568 3.305272-6.006795 5.116521-14.715114 5.11652-25.828197v-38.087381c-0.030699-8.708318-1.197266-16.219371-3.60203-22.226166z m0 0c-1.207499-2.701523-6.610545-7.163129-28.826478-7.163129h-34.239757c-14.111364 0-20.466083 1.801015-23.126674 3.60203a16.608226 16.608226 0 0 0-7.511053 9.005077c-1.207499 4.20578-1.801015 9.905584-1.801015 16.812887v36.94128c0 13.210857 1.504257 22.512691 4.20578 27.92597 1.504257 2.701523 6.610545 7.163129 26.728705 7.163129h35.733781c14.715114 0 24.027182-2.998281 27.322221-8.104568 3.305272-6.006795 5.116521-14.715114 5.11652-25.828197v-38.087381c-0.030699-8.708318-1.197266-16.219371-3.60203-22.226166z" p-id="10567" fill="#1296db"></path></svg>