<?xml version="1.0" standalone="no"?><!DOCTYPE svg PUBLIC "-//W3C//DTD SVG 1.1//EN" "http://www.w3.org/Graphics/SVG/1.1/DTD/svg11.dtd"><svg t="1497418658109" class="icon" style="" viewBox="0 0 1024 1024" version="1.1" xmlns="http://www.w3.org/2000/svg" p-id="2282" xmlns:xlink="http://www.w3.org/1999/xlink" width="200" height="200"><defs><style type="text/css"></style></defs><path d="M636.515898 426.229544c15.581883 9.223059 19.270902 3.619434 24.723078 0.496304 5.463432-3.136433 208.546733-119.364575 221.47723-125.69577 12.941753-6.329149 18.661012-27.175943 1.617847-37.041638C867.286796 254.099209 523.721973 55.073316 540.310789 63.602573c17.86795 9.1678-17.057491-11.764951-37.267788-2.485611-20.2236 9.281387-329.687768 187.218986-351.628476 199.7463-21.925359 12.531408-28.837792 24.565489-28.766161 41.253566 0.057305 16.688077-1.108241 386.766764 0 408.735102 1.108241 21.969361 9.79304 29.122271 21.373797 37.025265 11.579733 7.919367 325.004095 191.660134 348.716146 204.504674 23.716144 12.872169 39.284725 8.472975 54.682413-0.568958 15.399735-9.06854 322.536904-184.535877 334.825788-192.355983 12.288884-7.820106 23.460318-27.942399-2.227738-42.463114-25.699312-14.502295-209.739908-123.368772-216.833467-126.914528-7.095605-3.547803-11.298324-3.621481-21.572318 2.14178-10.276041 5.79089-102.491279 57.645908-113.717971 64.203254-11.224646 6.5553-12.82919 3.605108-18.20871 0.468674-5.364171-3.15076-100.54802-58.682517-111.532189-64.87045-10.984169-6.187933-12.288884-9.309016-12.31856-17.73799-0.010233-8.417717-0.25378-115.250884 0.325411-127.69838 0.569982-12.44545 2.343371-15.241123 13.652951-21.969361 11.311627-6.728238 95.012957-56.452733 101.69924-60.925604 6.667863-4.470825 20.704554-4.895497 31.661094 1.532913 10.954493 6.414083 87.760786 51.755758 103.343693 60.997236L636.515898 426.229544 636.515898 426.229544z" p-id="2283" fill="#80BD01"></path></svg>