<?xml version="1.0" standalone="no"?><!DOCTYPE svg PUBLIC "-//W3C//DTD SVG 1.1//EN" "http://www.w3.org/Graphics/SVG/1.1/DTD/svg11.dtd"><svg t="1497333420688" class="icon" style="" viewBox="0 0 1024 1024" version="1.1" xmlns="http://www.w3.org/2000/svg" p-id="2227" xmlns:xlink="http://www.w3.org/1999/xlink" width="64" height="64"><defs><style type="text/css"></style></defs><path d="M502.201331 250.736625 499.009639 252.331959 497.420445 253.921153 495.824087 255.511371 494.234893 257.106706 492.638535 258.703063 491.043201 261.888616 489.454006 263.47781 487.857649 265.073144 486.268454 266.668479 484.67312 268.258697 483.076762 269.847891 481.487567 271.443225 479.89121 273.039583 478.302015 274.628778 476.706681 276.217972 475.116463 277.81433 473.521129 279.409664 471.931934 281.006022 470.3366 282.595216 468.740242 284.184411 467.151048 285.780769 465.55469 287.376103 463.965495 290.555515 462.369138 292.15085 460.779943 293.747207 459.184609 295.342542 457.588251 296.931736 455.999057 298.520931 454.403722 300.117288 452.807365 301.713646 451.21817 303.302841 449.621812 304.898175 448.032618 306.488393 446.437284 308.083727 444.847066 309.679062 443.251731 311.268256 441.656397 312.858474 440.066179 314.453808 438.470845 317.639361 436.88165 319.228555 435.285293 320.824913 433.696098 322.420247 432.09974 324.016605 430.504406 325.605799 428.914188 327.194994 427.318854 328.790328 425.729659 330.386686 424.134325 331.97588 422.537967 333.565075 420.948773 335.161433 419.352415 336.75779 417.763221 338.353125 416.166863 339.942319 414.577668 341.531514 412.982334 344.723206 411.387 346.313423 409.796782 347.908758 408.201447 349.497952 406.612253 351.09431 405.015895 352.689644 403.426701 354.279862 401.830343 355.869057 400.235009 357.464391 398.644791 359.060749 397.049456 360.649943 395.460262 362.239138 393.864928 363.835496 392.26857 365.43083 390.679375 367.027188 389.083018 368.616382 387.493823 371.800911 385.897466 373.397269 384.302131 374.986463 382.712937 376.582821 381.116579 378.172015 379.527384 379.76735 377.93205 381.363707 376.341832 382.952902 374.746498 384.542096 373.15014 386.138454 371.560946 387.734812 369.965611 389.322983 368.375393 390.919341 366.780059 392.508535 365.190865 394.104893 363.594507 395.694087 361.999173 398.87964 360.409978 400.474974 358.81362 402.070308 357.224426 403.660526 355.628068 405.249721 354.032734 406.845055 352.443539 408.441413 350.847182 410.036747 349.257987 411.626965 347.662653 413.216159 346.072435 414.811494 344.477101 416.407851 342.880743 417.997046 341.291548 419.59238 339.695191 421.182598 338.105996 422.777933 336.510662 425.963485 334.920444 427.552679 333.32511 429.149037 331.729775 430.744371 330.140581 432.340729 328.544223 433.929924 326.955028 435.519118 325.358671 437.114452 323.763336 438.70467 322.173119 440.300005 320.577784 441.889199 318.98859 443.485557 317.393255 445.081914 315.803038 446.671109 314.207703 448.260304 312.611346 449.855638 311.022151 453.04733 309.425793 454.636524 307.836599 456.226742 306.241264 457.822077 304.651047 459.418434 303.055712 461.007629 301.460378 462.603986 299.871183 464.193181 298.274826 465.788515 296.685631 467.38385 295.089273 468.974068 293.500079 470.563262 291.903721 472.15962 290.308387 473.754954 288.719192 475.351312 287.122835 476.940506 285.5275 480.126059 283.938306 481.71423 282.341948 483.310587 280.752754 484.899782 279.156396 486.49614 277.567201 488.091474 275.971867 489.681692 274.381649 491.270886 272.786315 492.866221 271.190981 494.462578 269.600763 496.057913 268.005428 497.647107 266.416234 499.236302 264.819876 500.832659 263.230682 502.429017 261.634324 504.018212 260.03899 505.613546 258.448772 508.799098 256.853437 510.395456 255.258103 511.983627 253.668908 513.573845 252.072551 515.169179 250.483356 516.765537 248.886999 518.360871 247.297804 519.951089 245.701446 521.540284 244.106112 523.135618 242.516918 524.731976 240.921583 526.32117 239.331365 527.910365 237.736031 529.506722 236.146836 531.102057 234.550479 532.692275 232.954121 535.876804 231.364927 537.473161 229.769592 539.068496 228.179374 540.65769 226.58404 542.247908 224.994845 543.843242 223.399511 545.4396 221.803153 547.028794 220.213959 548.624129 218.617601 550.213323 217.022267 551.808658 215.432049 553.405015 213.836715 554.995233 212.24752 556.583404 210.651163 558.179762 209.061968 559.77612 207.466634 562.954509 205.876416 564.550867 204.281081 566.146201 202.684724 567.742559 201.095529 569.33073 199.500195 570.920948 197.909977 572.517305 196.314643 574.11264 194.725448 575.701834 193.12909 577.292052 191.533756 578.887386 189.944562 580.482721 188.348204 582.079078 186.75287 583.668273 185.162652 585.257467 183.567317 586.853825 181.9771 590.039377 180.381765 591.634712 178.792571 593.223906 177.197236 594.820264 175.600879 596.415598 174.011684 598.004793 172.415326 602.786703 172.415326 612.342336 174.011684 617.123222 175.600879 618.712417 177.197236 620.301612 178.792571 621.897969 180.381765 623.493304 185.162652 625.089661 194.725448 625.089661 199.500195 623.493304 201.095529 621.897969 202.684724 620.301612 204.281081 618.712417 205.876416 617.123222 207.466634 615.526865 209.061968 613.930507 210.651163 612.342336 212.24752 610.753141 213.836715 609.156784 215.432049 607.561449 217.022267 605.965092 218.617601 604.375897 220.213959 602.786703 221.803153 601.190345 223.399511 598.004793 224.994845 596.415598 226.58404 594.820264 228.179374 593.223906 229.769592 591.634712 231.364927 590.039377 232.954121 588.449159 234.550479 586.853825 236.146836 585.257467 237.736031 583.668273 239.331365 582.079078 240.921583 580.482721 242.516918 578.887386 244.106112 577.292052 245.701446 575.701834 247.297804 574.11264 248.886999 570.920948 250.483356 569.33073 252.072551 567.742559 253.668908 566.146201 255.258103 564.550867 256.853437 562.954509 258.448772 561.371454 260.03899 559.77612 261.634324 558.179762 263.230682 556.583404 264.819876 554.995233 266.416234 553.405015 268.005428 551.808658 269.600763 550.213323 271.190981 548.624129 272.786315 547.028794 274.381649 543.843242 275.971867 542.247908 277.567201 540.65769 279.156396 539.068496 280.752754 537.473161 282.341948 535.876804 283.938306 534.281469 285.5275 532.692275 287.122835 531.102057 288.719192 529.506722 290.308387 527.910365 291.903721 526.32117 293.500079 524.731976 295.089273 523.135618 296.685631 521.540284 298.274826 519.951089 299.871183 516.765537 301.460378 515.169179 303.055712 513.573845 304.651047 511.983627 306.241264 510.395456 307.836599 508.799098 309.425793 507.203764 311.022151 505.613546 312.611346 504.018212 314.207703 502.429017 315.803038 500.832659 317.393255 499.236302 318.98859 497.647107 320.577784 496.057913 322.173119 494.462578 323.763336 492.866221 325.358671 491.270886 326.955028 488.091474 328.544223 486.49614 330.140581 484.899782 331.729775 483.310587 333.32511 481.71423 334.920444 480.126059 336.510662 478.529701 338.105996 476.940506 339.695191 475.351312 341.291548 473.754954 342.880743 472.15962 344.477101 470.563262 346.072435 468.974068 347.662653 467.38385 349.257987 465.788515 350.847182 464.193181 352.443539 461.007629 354.032734 459.418434 355.628068 457.822077 357.224426 456.226742 358.81362 454.636524 360.409978 453.04733 361.999173 451.451996 363.594507 449.855638 365.190865 448.260304 366.780059 446.671109 368.375393 445.081914 369.965611 443.485557 371.560946 441.889199 373.15014 440.300005 374.746498 438.70467 376.341832 437.114452 377.93205 433.929924 379.527384 432.340729 381.116579 430.744371 382.712937 429.149037 384.302131 427.552679 385.897466 425.963485 387.493823 424.37429 389.083018 422.777933 390.679375 421.182598 392.26857 419.59238 393.864928 417.997046 395.460262 416.407851 397.049456 414.811494 398.644791 413.216159 400.235009 411.626965 401.830343 410.036747 403.426701 406.845055 405.015895 405.249721 406.612253 403.660526 408.201447 402.070308 409.796782 400.474974 411.387 398.87964 412.982334 397.289422 414.577668 395.694087 416.166863 394.104893 417.763221 392.508535 419.352415 390.919341 420.948773 389.322983 422.537967 387.734812 424.134325 386.138454 425.729659 384.542096 427.318854 382.952902 428.914188 379.76735 430.504406 378.172015 432.09974 376.582821 433.696098 374.986463 435.285293 373.397269 436.88165 371.800911 438.470845 370.205577 440.066179 368.616382 441.656397 367.027188 443.251731 365.43083 444.847066 363.835496 446.437284 362.239138 448.032618 360.649943 449.621812 359.060749 451.21817 357.464391 452.807365 355.869057 454.403722 352.689644 455.999057 351.09431 457.588251 349.497952 459.184609 347.908758 460.779943 346.313423 462.369138 344.723206 463.965495 343.127871 465.55469 341.531514 467.151048 339.942319 468.740242 338.353125 470.3366 336.75779 471.931934 335.161433 473.521129 333.565075 475.116463 331.97588 476.706681 330.386686 478.302015 328.790328 479.89121 325.605799 481.487567 324.016605 483.076762 322.420247 484.67312 320.824913 486.268454 319.228555 487.857649 317.639361 489.454006 316.050166 491.043201 314.453808 492.638535 312.858474 494.234893 311.268256 495.824087 309.679062 497.420445 308.083727 499.009639 306.488393 500.604974 304.898175 502.201331 303.302841 503.790526 301.713646 505.386884 298.520931 506.976078 296.931736 508.571413 295.342542 510.16163 293.747207 511.756965 293.747207 513.346159 295.342542 514.942517 296.931736 516.537851 298.520931 518.127046 301.713646 519.723404 303.302841 521.312598 304.898175 522.908956 306.488393 524.49815 308.083727 526.093485 309.679062 527.689842 311.268256 529.279037 312.858474 530.874371 314.453808 532.470729 316.050166 534.059923 317.639361 535.656281 319.228555 537.245476 320.824913 538.84081 322.420247 540.431028 324.016605 542.026362 325.605799 543.621696 328.790328 545.211914 330.386686 546.807249 331.97588 548.396443 333.565075 549.992801 335.161433 551.583019 336.75779 553.178353 338.353125 554.774711 339.942319 556.362882 341.531514 557.95924 343.127871 559.548434 344.723206 561.143769 346.313423 562.740126 347.908758 564.330344 349.497952 565.925678 351.09431 567.514873 352.689644 569.110207 355.869057 570.706565 357.464391 572.296783 359.060749 573.891094 360.649943 575.481312 362.239138 577.077669 363.835496 578.665841 365.43083 580.262198 367.027188 581.852416 368.616382 583.44775 370.205577 585.044108 371.800911 586.632279 373.397269 588.228637 374.986463 589.817832 376.582821 591.413166 378.172015 593.003384 379.76735 594.599741 382.952902 596.195076 384.542096 597.78427 386.138454 599.379605 387.734812 600.975962 389.322983 602.56618 390.919341 604.160491 392.508535 605.750709 394.104893 607.347067 395.694087 608.935238 397.289422 610.531596 398.87964 612.127953 400.474974 613.717148 402.070308 615.313505 403.660526 616.9027 405.249721 618.498034 406.845055 620.087229 410.036747 621.682563 411.626965 623.272781 413.216159 624.869139 414.811494 626.464473 416.407851 628.053668 417.997046 629.650025 419.59238 631.24536 421.182598 632.835577 422.777933 634.430912 424.37429 636.020106 425.963485 637.616464 427.552679 639.204635 429.149037 640.800993 430.744371 642.391211 432.340729 643.986545 433.929924 645.582903 437.114452 647.172097 438.70467 648.767432 440.300005 650.356626 441.889199 651.951961 443.485557 653.548318 445.081914 655.138536 446.671109 656.73387 448.260304 658.323065 449.855638 659.919423 451.451996 661.508617 453.04733 663.104975 454.636524 664.700309 456.226742 666.289504 457.822077 667.885861 459.418434 669.475056 461.007629 671.07039 464.193181 672.666748 465.788515 674.255942 467.38385 675.8523 468.974068 677.441495 470.563262 679.036829 472.15962 680.626024 473.754954 682.222381 475.351312 683.817716 476.940506 685.407933 478.529701 687.003268 480.126059 688.592462 481.71423 690.18882 483.310587 691.778015 484.899782 693.374372 486.49614 694.97073 488.091474 696.558901 491.270886 698.155259 492.866221 699.750593 494.462578 701.339788 496.057913 702.936145 497.647107 704.52534 499.236302 706.121697 500.832659 707.710892 502.429017 709.306226 504.018212 710.896444 505.613546 712.491779 507.203764 714.087113 508.799098 715.677331 510.395456 717.272665 511.983627 718.86186 513.573845 720.458217 515.169179 722.053552 516.765537 723.64377 519.951089 725.240127 521.540284 726.828298 523.135618 728.424656 524.731976 730.013851 526.32117 731.609185 527.910365 733.205543 529.506722 734.79576 531.102057 736.391095 532.692275 737.980289 534.281469 739.575624 535.876804 741.171981 537.473161 742.762199 539.068496 744.35651 540.65769 745.946728 542.247908 747.543086 543.843242 749.131257 547.028794 750.727615 548.624129 752.322949 550.213323 753.913167 551.808658 755.509525 553.405015 757.097696 554.995233 758.694053 556.583404 760.283248 558.179762 761.878582 559.77612 763.4688 561.371454 765.065158 562.954509 766.660492 564.550867 768.25685 566.146201 769.845021 567.742559 771.441379 569.33073 773.031597 570.920948 774.625908 574.11264 776.216125 575.701834 777.812483 577.292052 779.400654 578.887386 780.997012 580.482721 782.59337 582.079078 784.182564 583.668273 785.778922 585.257467 787.368116 586.853825 788.963451 588.449159 790.552645 590.039377 792.14798 591.634712 793.738198 593.223906 795.334555 594.820264 796.92989 596.415598 798.519084 598.004793 800.115442 601.190345 801.710776 602.786703 803.300994 604.375897 804.895305 605.965092 806.485523 607.561449 808.08188 609.156784 809.670052 610.753141 811.266409 612.342336 812.862767 613.930507 814.451962 615.526865 816.048319 617.123222 817.637514 618.712417 819.232848 620.301612 820.822043 621.897969 822.417377 623.493304 827.199287 625.089661 836.75492 625.089661 841.535807 623.493304 843.132164 621.897969 844.721359 620.301612 846.317717 618.712417 847.906911 617.123222 849.502245 612.342336 849.502245 602.786703 847.906911 598.004793 846.317717 596.415598 844.721359 594.820264 843.132164 593.223906 841.535807 591.634712 839.946612 590.039377 838.351278 586.853825 836.75492 585.257467 835.165726 583.668273 833.570391 582.079078 831.974034 580.482721 830.384839 578.887386 828.788481 577.292052 827.199287 575.701834 825.603953 574.11264 824.013735 572.517305 822.417377 570.920948 820.822043 569.33073 819.232848 567.742559 817.637514 566.146201 816.048319 564.550867 814.451962 562.954509 812.862767 559.77612 811.266409 558.179762 809.670052 556.583404 808.08188 554.995233 806.485523 553.405015 804.895305 551.808658 803.300994 550.213323 801.710776 548.624129 800.115442 547.028794 798.519084 545.4396 796.92989 543.843242 795.334555 542.247908 793.738198 540.65769 792.14798 539.068496 790.552645 537.473161 788.963451 535.876804 787.368116 532.692275 785.778922 531.102057 784.182564 529.506722 782.59337 527.910365 780.997012 526.32117 779.400654 524.731976 777.812483 523.135618 776.216125 521.540284 774.625908 519.951089 773.031597 518.360871 771.441379 516.765537 769.845021 515.169179 768.25685 513.573845 766.660492 511.983627 765.065158 510.395456 763.4688 508.799098 761.878582 505.613546 760.283248 504.018212 758.694053 502.429017 757.097696 500.832659 755.509525 499.236302 753.913167 497.647107 752.322949 496.057913 750.727615 494.462578 749.131257 492.866221 747.543086 491.270886 745.946728 489.681692 744.35651 488.091474 742.762199 486.49614 741.171981 484.899782 739.575624 483.310587 737.980289 481.71423 736.391095 480.126059 734.79576 476.940506 733.205543 475.351312 731.609185 473.754954 730.013851 472.15962 728.424656 470.563262 726.828298 468.974068 725.240127 467.38385 723.64377 465.788515 722.053552 464.193181 720.458217 462.603986 718.86186 461.007629 717.272665 459.418434 715.677331 457.822077 714.087113 456.226742 712.491779 454.636524 710.896444 453.04733 709.306226 449.855638 707.710892 448.260304 706.121697 446.671109 704.52534 445.081914 702.936145 443.485557 701.339788 441.889199 699.750593 440.300005 698.155259 438.70467 696.558901 437.114452 694.97073 435.519118 693.374372 433.929924 691.778015 432.340729 690.18882 430.744371 688.592462 429.149037 687.003268 427.552679 685.407933 425.963485 683.817716 422.777933 682.222381 421.182598 680.626024 419.59238 679.036829 417.997046 677.441495 416.407851 675.8523 414.811494 674.255942 413.216159 672.666748 411.626965 671.07039 410.036747 669.475056 408.441413 667.885861 406.845055 666.289504 405.249721 664.700309 403.660526 663.104975 402.070308 661.508617 400.474974 659.919423 398.87964 658.323065 395.694087 656.73387 394.104893 655.138536 392.508535 653.548318 390.919341 651.951961 389.322983 650.356626 387.734812 648.767432 386.138454 647.172097 384.542096 645.582903 382.952902 643.986545 381.363707 642.391211 379.76735 640.800993 378.172015 639.204635 376.582821 637.616464 374.986463 636.020106 373.397269 634.430912 371.800911 632.835577 368.616382 631.24536 367.027188 629.650025 365.43083 628.053668 363.835496 626.464473 362.239138 624.869139 360.649943 623.272781 359.060749 621.682563 357.464391 620.087229 355.869057 618.498034 354.279862 616.9027 352.689644 615.313505 351.09431 613.717148 349.497952 612.127953 347.908758 610.531596 346.313423 608.935238 344.723206 607.347067 341.531514 605.750709 339.942319 604.160491 338.353125 602.56618 336.75779 600.975962 335.161433 599.379605 333.565075 597.78427 331.97588 596.195076 330.386686 594.599741 328.790328 593.003384 327.194994 591.413166 325.605799 589.817832 324.016605 588.228637 322.420247 586.632279 320.824913 585.044108 319.228555 583.44775 317.639361 581.852416 314.453808 580.262198 312.858474 578.665841 311.268256 577.077669 309.679062 575.481312 308.083727 573.891094 306.488393 572.296783 304.898175 570.706565 303.302841 569.110207 301.713646 567.514873 300.117288 565.925678 298.520931 564.330344 296.931736 562.740126 295.342542 561.143769 293.747207 559.548434 292.15085 557.95924 290.555515 556.362882 287.376103 554.774711 285.780769 553.178353 284.184411 551.583019 282.595216 549.992801 281.006022 548.396443 279.409664 546.807249 277.81433 545.211914 276.217972 543.621696 274.628778 542.026362 273.039583 540.431028 271.443225 538.84081 269.847891 537.245476 268.258697 535.656281 266.668479 534.059923 265.073144 532.470729 263.47781 530.874371 261.888616 529.279037 258.703063 527.689842 257.106706 526.093485 255.511371 524.49815 253.921153 522.908956 252.331959 519.723404 250.736625 516.537851 249.140267 505.386884 249.140267Z" p-id="2228" fill="#555555"></path><path d="M100.387873 483.953224l1.595334-19.12457 1.596358-12.760628 1.593288-11.165294 1.592264-7.966439 1.596358-7.978718 1.596358-7.966439 1.592264-6.383384 1.596358-6.370081 1.593288-6.383384 1.595334-4.780887 1.593288-6.377244 1.596358-4.78805 1.596358-4.780887 1.592264-4.780887 1.592264-4.78805 1.596358-3.184529 1.596358-4.780887 1.596358-3.191692 1.593288-4.78805 1.592264-3.184529 1.596358-4.780887 1.596358-3.191692 1.592264-3.191692 1.596358-3.185552 1.592264-3.185552 1.596358-3.191692 1.593288-3.191692 1.596358-3.191692 1.595334-3.184529 1.593288-3.185552 1.596358-3.191692 1.592264-3.191692 1.596358-3.184529 1.596358-1.596358 1.589195-3.185552 1.596358-3.191692 1.596358-1.596358 1.595334-3.191692 1.596358-3.184529 1.589195-1.589195 1.596358-3.191692 1.596358-1.596358 1.596358-3.191692 1.596358-1.596358 1.589195-3.184529 1.596358-1.596358 1.596358-3.185552 1.595334-1.596358 1.596358-1.596358 1.589195-3.191692 1.596358-1.596358 1.596358-1.589195 1.596358-3.185552 1.589195-1.596358 1.596358-1.596358 1.596358-3.191692 1.595334-1.596358 1.589195-1.595334 1.596358-1.590218 1.596358-1.595334 1.596358-3.185552 1.596358-1.596358 1.589195-1.596358 1.596358-1.596358 1.596358-1.596358 1.595334-1.596358 1.596358-1.589195 1.589195-3.191692 1.596358-1.589195 1.596358-1.596358 1.596358-1.596358 1.589195-1.596358 1.596358-1.596358 1.596358-1.596358 1.596358-1.589195 1.595334-1.595334 1.589195-1.589195 1.596358-1.596358 1.596358-1.596358 1.596358-1.596358 1.589195-1.596358 1.596358-1.596358 3.191692-1.596358 1.589195-1.596358 1.596358-1.589195 1.596358-1.596358 1.596358-1.589195 1.596358-1.596358 1.589195-1.596358 3.191692-1.596358 1.596358-1.596358 1.595334-1.596358 1.589195-1.589195 1.596358-1.596358 3.191692-1.595334 1.596358-1.596358 1.589195-1.589195 3.191692-1.596358 1.596358-1.596358 1.595334-1.596358 3.185552-1.596358 1.596358-1.596358 1.596358-1.589195 3.185552-1.596358 1.596358-1.589195 3.184529-1.596358 1.596358-1.596358 3.191692-1.596358 1.596358-1.596358 3.185552-1.596358 1.596358-1.596358 3.191692-1.595334 3.184529-1.590218 1.596358-1.595334 3.191692-1.589195 3.185552-1.596358 1.596358-1.596358 3.184529-1.596358 3.191692-1.596358 3.185552-1.596358 3.191692-1.589195 3.191692-1.595334 3.184529-1.596358 3.191692-1.589195 3.185552-1.596358 3.191692-1.596358 3.185552-1.596358 3.191692-1.596358 3.191692-1.596358 4.780887-1.589195 3.191692-1.596358 4.780887-1.589195 3.185552-1.596358 4.78805-1.596358 3.184529-1.596358 4.78805-1.596358 4.780887-1.596358 4.780887-1.596358 4.787026-1.596358 6.377244-1.589195 4.780887-1.595334 6.377244-1.589195 6.377244-1.596358 6.383384-1.596358 6.377244-1.596358 9.568936-1.596358 7.966439-1.596358 11.164271-1.589195 12.753465-1.596358 19.130709-1.596358 49.432853 0 19.130709 1.596358 12.754488 1.596358 11.164271 1.589195 7.972579 1.596358 9.568936 1.596358 6.376221 1.596358 6.377244 1.596358 6.376221 1.596358 6.376221 1.589195 4.78191 1.595334 6.382361 1.589195 4.78191 1.596358 4.780887 1.596358 4.78805 1.596358 4.780887 1.596358 3.185552 1.596358 4.787026 1.596358 3.185552 1.596358 4.78805 1.589195 3.184529 1.596358 4.78805 1.589195 3.184529 1.596358 3.191692 1.596358 3.191692 1.596358 3.185552 1.596358 3.190669 1.596358 3.185552 1.589195 3.191692 1.596358 3.184529 1.595334 3.191692 1.589195 3.184529 1.596358 3.191692 1.596358 3.185552 1.596358 1.596358 1.596358 3.191692 1.596358 3.184529 1.589195 1.596358 1.595334 3.191692 1.590218 3.184529 1.595334 1.596358 1.596358 3.191692 1.596358 1.589195 1.596358 3.191692 1.596358 1.596358 1.596358 3.185552 1.596358 1.596358 1.589195 3.191692 1.596358 1.589195 1.589195 1.596358 1.596358 3.191692 1.596358 1.596358 1.596358 1.589195 1.596358 3.191692 1.596358 1.596358 1.589195 1.596358 1.596358 3.184529 1.595334 1.596358 1.596358 1.596358 1.589195 1.596358 1.596358 1.590218 1.596358 3.191692 1.596358 1.596358 1.596358 1.589195 1.596358 1.596358 1.589195 1.596358 1.596358 1.596358 1.589195 1.589195 1.596358 3.191692 1.596358 1.596358 1.596358 1.596358 1.596358 1.590218 1.596358 1.595334 1.596358 1.596358 1.596358 1.596358 1.589195 1.596358 1.595334 1.590218 1.589195 1.596358 1.596358 1.596358 1.596358 1.596358 1.596358 1.596358 1.596358 1.589195 1.596358 1.596358 1.589195 1.596358 3.191692 1.596358 1.589195 1.589195 1.596358 1.596358 1.596358 1.596358 1.596358 1.596358 1.596358 1.589195 1.596358 1.596358 3.185552 1.596358 1.595334 1.596358 1.590218 1.596358 1.595334 1.590218 1.596358 1.596358 3.191692 1.596358 1.596358 1.596358 1.596358 1.589195 3.185552 1.596358 1.589195 1.596358 1.596358 1.596358 3.191692 1.596358 1.596358 1.589195 1.596358 1.596358 3.185552 1.596358 1.596358 1.596358 3.184529 1.596358 1.596358 1.589195 3.191692 1.596358 1.596358 1.596358 3.191692 1.596358 1.589195 1.596358 3.184529 1.590218 3.191692 1.596358 1.596358 1.596358 3.191692 1.596358 3.185552 1.589195 1.596358 1.596358 3.184529 1.596358 3.191692 1.596358 3.191692 1.589195 3.185552 1.596358 3.184529 1.596358 3.191692 1.596358 3.191692 1.596358 3.191692 1.590218 3.185552 1.595334 3.185552 1.596358 3.191692 1.596358 3.191692 1.596358 4.780887 1.590218 3.184529 1.596358 4.78805 1.596358 3.191692 1.596358 4.780887 1.596358 3.184529 1.589195 4.78805 1.596358 4.780887 1.596358 4.780887 1.596358 4.78805 1.589195 6.377244 1.596358 4.780887 1.596358 6.383384 1.596358 6.370081 1.590218 6.383384 1.596358 7.966439 1.595334 7.978718 1.596358 7.966439 1.596358 11.165294 1.590218 12.760628 1.596358 19.12457 0 49.432853-1.596358 19.130709-1.590218 12.760628-1.596358 11.158131-1.596358 7.972579-1.595334 7.972579-1.596358 7.972579-1.590218 6.377244-1.596358 6.376221-1.596358 6.376221-1.596358 4.78805-1.589195 6.371104-1.596358 4.78805-1.596358 4.780887-1.596358 4.780887-1.589195 4.78805-1.596358 3.191692-1.596358 4.780887-1.596358 3.185552-1.596358 4.78805-1.590218 3.191692-1.596358 4.773723-1.596358 3.191692-1.596358 3.191692-1.595334 3.191692-1.590218 3.185552-1.596358 3.184529-1.596358 3.191692-1.596358 3.191692-1.596358 3.184529-1.589195 3.191692-1.596358 3.184529-1.596358 3.191692-1.596358 3.191692-1.589195 1.596358-1.596358 3.185552-1.596358 3.184529-1.596358 1.596358-1.590218 3.191692-1.596358 3.184529-1.596358 1.596358-1.596358 3.191692-1.596358 1.589195-1.589195 3.191692-1.596358 1.596358-1.596358 3.191692-1.596358 1.590218-1.596358 3.184529-1.589195 1.596358-1.596358 1.596358-1.596358 3.191692-1.596358 1.596358-1.596358 1.596358-1.589195 3.184529-1.596358 1.590218-1.596358 1.595334-1.596358 3.191692-1.590218 1.596358-1.596358 1.596358-1.596358 1.596358-1.596358 1.590218-1.596358 3.191692-1.589195 1.589195-1.596358 1.596358-1.596358 1.596358-1.596358 1.596358-1.589195 1.596358-1.596358 1.596358-1.596358 3.184529-1.596358 1.596358-1.589195 1.589195-1.596358 1.596358-1.596358 1.596358-1.596358 1.596358-1.596358 1.596358-1.590218 1.596358-1.596358 1.596358-1.596358 1.590218-1.596358 1.596358-1.595334 1.589195-1.590218 1.596358-1.596358 1.596358-1.596358 1.596358-3.191692 1.596358-1.589195 1.596358-1.596358 1.589195-1.596358 1.596358-1.596358 1.596358-1.589195 1.596358-1.596358 1.589195-3.191692 1.596358-1.590218 1.596358-1.596358 1.596358-1.596358 1.596358-1.596358 1.596358-3.184529 1.590218-1.596358 1.596358-1.596358 1.589195-3.191692 1.596358-1.589195 1.596358-1.596358 1.596358-3.191692 1.596358-1.596358 1.596358-1.589195 1.596358-3.191692 1.596358-1.596358 1.589195-3.185552 1.596358-1.596358 1.590218-3.191692 1.595334-1.589195 1.596358-3.191692 1.596358-1.596358 1.596358-3.184529 1.596358-3.191692 1.590218-1.596358 1.596358-3.184529 1.596358-3.191692 1.596358-1.596358 1.589195-3.185552 1.596358-3.191692 1.596358-3.184529 1.596358-3.191692 1.596358-3.184529 1.596358-3.191692 1.589195-3.185552 1.596358-3.190669 1.590218-3.185552 1.596358-3.191692 1.595334-3.191692 1.596358-3.184529 1.596358-4.78805 1.596358-3.184529 1.596358-4.78805 1.590218-3.185552 1.596358-4.787026 1.589195-3.185552 1.596358-4.780887 1.596358-4.78805 1.596358-4.780887 1.596358-4.78191 1.596358-6.382361 1.589195-4.78191 1.596358-6.376221 1.596358-6.376221 1.596358-6.377244 1.590218-6.376221 1.595334-9.568936 1.596358-7.972579 1.596358-11.164271 1.596358-12.754488 1.596358-19.130709 1.590218-49.432853 0-19.130709-1.590218-12.753465-1.596358-11.164271-1.596358-7.966439-1.596358-9.568936-1.596358-6.377244-1.595334-6.383384-1.590218-6.377244-1.596358-6.377244-1.596358-4.780887-1.596358-6.377244-1.589195-4.787026-1.596358-4.780887-1.596358-4.780887-1.596358-4.78805-1.596358-3.184529-1.596358-4.78805-1.589195-3.185552-1.596358-4.780887-1.590218-3.191692-1.596358-4.780887-1.596358-3.191692-1.596358-3.191692-1.596358-3.185552-1.595334-3.191692-1.596358-3.185552-1.590218-3.191692-1.596358-3.184529-1.589195-3.191692-1.596358-3.191692-1.596358-3.185552-1.596358-3.191692-1.596358-3.184529-1.596358-1.596358-1.589195-3.185552-1.596358-3.191692-1.596358-1.596358-1.596358-3.184529-1.590218-3.191692-1.596358-1.596358-1.596358-3.185552-1.596358-1.596358-1.596358-3.191692-1.595334-1.596358-1.590218-3.184529-1.596358-1.596358-1.589195-3.185552-1.596358-1.596358-1.596358-1.596358-1.596358-3.185552-1.596358-1.595334-1.596358-1.596358-1.596358-3.191692-1.596358-1.589195-1.589195-1.596358-1.596358-3.191692-1.590218-1.596358-1.596358-1.589195-1.596358-1.595334-1.596358-1.596358-1.596358-3.191692-1.596358-1.589195-1.589195-1.596358-1.596358-1.596358-1.596358-1.596358-1.596358-1.596358-1.589195-1.589195-1.596358-3.191692-1.596358-1.596358-1.596358-1.589195-1.596358-1.596358-1.596358-1.596358-1.589195-1.596358-1.596358-1.589195-1.590218-1.595334-1.596358-1.596358-1.596358-1.596358-1.596358-1.596358-1.596358-1.589195-1.596358-1.596358-1.596358-1.596358-1.589195-1.596358-1.596358-1.589195-3.184529-1.596358-1.596358-1.595334-1.596358-1.596358-1.596358-1.596358-1.596358-1.589195-1.596358-1.596358-1.589195-1.596358-3.191692-1.596358-1.590218-1.596358-1.596358-1.589195-1.596358-1.595334-1.596358-1.596358-3.191692-1.596358-1.595334-1.589195-1.590218-1.596358-3.184529-1.596358-1.596358-1.596358-1.596358-1.589195-3.191692-1.596358-1.596358-1.595334-1.596358-1.596358-3.184529-1.596358-1.590218-1.589195-3.191692-1.596358-1.596358-1.596358-3.191692-1.596358-1.589195-1.596358-3.191692-1.589195-1.596358-1.596358-3.184529-1.595334-3.191692-1.596358-1.596358-1.596358-3.184529-1.589195-3.185552-1.596358-1.596358-1.596358-3.191692-1.592264-3.191692-1.596358-3.184529-1.593288-3.191692-1.595334-3.184529-1.596358-3.191692-1.593288-3.191692-1.596358-3.184529-1.592264-3.185552-1.596358-3.191692-1.592264-3.191692-1.596358-3.191692-1.596358-4.773723-1.592264-3.191692-1.593288-4.78805-1.596358-3.185552-1.596358-4.780887-1.596358-3.191692-1.592264-4.78805-1.592264-4.780887-1.596358-4.780887-1.596358-4.78805-1.593288-6.371104-1.595334-4.78805-1.593288-6.376221-1.596358-6.376221-1.592264-6.377244-1.596358-7.972579-1.596358-7.972579-1.592264-7.972579-1.593288-11.158131-1.596358-12.760628-1.595334-19.130709L100.387873 483.953224 100.387873 483.953224zM463.92661 63.021336l-12.760628 1.596358-11.158131 1.596358-9.568936 1.589195-7.972579 1.596358-7.973602 1.589195-6.376221 1.596358-6.377244 1.596358-6.376221 1.596358-6.377244 1.596358-4.787026 1.596358-6.377244 1.596358-4.780887 1.595334-4.787026 1.590218-4.780887 1.595334-4.780887 1.589195-3.191692 1.596358-4.780887 1.596358-4.780887 1.596358-3.191692 1.596358-3.191692 1.596358-4.780887 1.589195-3.185552 1.595334-3.191692 1.596358-4.780887 1.596358-3.191692 1.589195-3.191692 1.596358-3.185552 1.596358-3.191692 1.596358-3.184529 1.596358-3.191692 1.596358-3.185552 1.589195-3.191692 1.595334-1.596358 1.589195-3.184529 1.596358-3.191692 1.596358-3.185552 1.596358-1.596358 1.596358-3.191692 1.596358-3.184529 1.596358-1.596358 1.596358-3.191692 1.589195-3.185552 1.596358-1.596358 1.589195-3.185552 1.596358-1.595334 1.596358-3.191692 1.596358-1.596358 1.596358-3.185552 1.596358-1.596358 1.589195-3.191692 1.596358-1.589195 1.595334-1.595334 1.589195-3.191692 1.596358-1.596358 1.596358-1.589195 1.596358-3.191692 1.596358-1.596358 1.596358-1.596358 1.589195-3.184529 1.595334-1.596358 1.590218-1.596358 1.595334-1.589195 1.596358-3.191692 1.596358-1.596358 1.596358-1.589195 1.596358-1.595334 1.596358-1.596358 1.596358-1.596358 1.589195-3.185552 1.596358-1.596358 1.589195-1.596358 1.596358-1.596358 1.596358-1.589195 1.596358-1.596358 1.596358-1.595334 1.596358-1.596358 1.589195-1.596358 1.596358-1.589195 1.595334-1.596358 1.596358-1.596358 1.589195-1.596358 1.596358-1.596358 1.596358-1.589195 1.596358-1.595334 1.596358-1.596358 1.596358-1.596358 1.589195-1.589195 1.596358-1.596358 1.589195-1.596358 1.596358-1.596358 1.596358-1.589195 1.596358-1.596358 1.596358-1.595334 1.596358-1.596358 3.191692-1.596358 1.589195-1.589195 1.595334-1.596358 1.589195-1.596358 1.596358-1.596358 1.596358-1.596358 3.191692-1.589195 1.596358-1.596358 1.589195-1.595334 1.596358-1.596358 3.184529-1.596358 1.596358-1.589195 1.596358-1.596358 3.191692-1.596358 1.596358-1.592264 1.596358-1.596358 3.184529-1.593288 1.590218-1.595334 1.595334-1.596358 3.191692-1.593288 1.596358-1.596358 3.191692-1.592264 1.589195-1.596358 3.184529-1.592264 1.596358-1.596358 3.191692-1.596358 1.596358-1.592264 3.185552-1.593288 3.191692-1.596358 1.595334-1.596358 3.185552-1.596358 3.191692-1.592264 1.596358-1.592264 3.191692-1.596358 3.178389-1.596358 3.191692-1.593288 1.596358-1.595334 3.191692-1.593288 3.191692-1.596358 3.185552-1.592264 3.184529-1.596358 3.191692-1.596358 3.191692-1.592264 3.185552-1.593288 3.184529-1.596358 4.78805-1.595334 3.191692-1.596358 3.191692-1.593288 4.774747-1.596358 3.191692-1.592264 3.191692-1.596358 4.780887-1.592264 4.780887-1.596358 3.191692-1.593288 4.780887-1.595334 4.780887-1.593288 4.787026-1.596358 4.78805-1.596358 6.370081-1.592264 4.78805-1.592264 6.377244-1.596358 6.376221-1.596358 6.377244-1.596358 6.376221-1.593288 7.979742-1.592264 7.966439-1.596358 9.568936-1.596358 11.164271-1.592264 14.349823-1.596358 19.130709 0 52.617381 1.596358 19.130709 1.592264 14.3488 1.596358 11.165294 1.596358 9.561773 1.592264 7.973602 1.593288 7.972579 1.596358 6.376221 1.596358 6.376221 1.596358 6.383384 1.592264 6.371104 1.592264 4.78805 1.596358 6.376221 1.596358 4.780887 1.593288 4.78805 1.595334 4.78191 1.593288 4.780887 1.596358 3.191692 1.592264 4.78805 1.596358 4.773723 1.592264 3.191692 1.596358 3.191692 1.593288 4.78191 1.596358 3.190669 1.595334 3.185552 1.596358 4.78805 1.593288 3.184529 1.592264 3.191692 1.596358 3.184529 1.596358 3.191692 1.592264 3.191692 1.596358 3.185552 1.593288 3.184529 1.595334 3.191692 1.593288 1.596358 1.596358 3.191692 1.596358 3.184529 1.592264 3.191692 1.592264 1.589195 1.596358 3.191692 1.596358 3.191692 1.596358 3.185552 1.593288 1.596358 1.592264 3.184529 1.596358 1.596358 1.596358 3.191692 1.592264 1.596358 1.596358 3.184529 1.592264 1.596358 1.596358 3.184529 1.593288 1.596358 1.596358 3.191692 1.595334 1.596358 1.593288 1.596358 1.596358 3.185552 1.592264 1.596358 1.596358 1.589195 1.596358 3.191692 1.589195 1.596358 1.596358 1.596358 1.596358 3.184529 1.595334 1.596358 1.596358 1.596358 1.589195 1.589195 1.596358 3.191692 1.596358 1.596358 1.596358 1.596358 1.596358 1.596358 1.589195 1.596358 1.596358 1.590218 1.596358 3.184529 1.595334 1.596358 1.596358 1.596358 1.589195 1.596358 1.596358 1.596358 1.596358 1.596358 1.596358 1.589195 1.589195 1.596358 1.596358 1.596358 1.596358 1.596358 1.595334 1.589195 1.589195 1.596358 1.596358 1.596358 1.596358 1.596358 1.596358 1.596358 1.596358 1.596358 1.589195 1.590218 1.596358 1.596358 1.596358 1.589195 1.595334 1.596358 1.596358 1.596358 1.589195 1.596358 1.596358 1.596358 1.596358 1.596358 1.596358 1.596358 3.185552 1.596358 1.596358 1.589195 1.596358 1.596358 1.595334 1.590218 1.589195 1.595334 1.596358 1.596358 3.191692 1.596358 1.589195 1.596358 1.596358 1.596358 1.596358 1.590218 3.184529 1.596358 1.596358 1.596358 1.596358 1.596358 3.191692 1.589195 1.589195 1.596358 1.596358 1.596358 3.191692 1.596358 1.595334 1.596358 1.589195 1.596358 3.191692 1.589195 1.596358 1.596358 3.185552 1.590218 1.596358 1.596358 3.191692 1.595334 1.595334 1.596358 3.185552 1.596358 1.596358 1.596358 3.185552 1.596358 3.191692 1.590218 1.596358 1.596358 3.184529 1.589195 3.191692 1.596358 1.596358 1.596358 3.185552 1.596358 3.191692 1.596358 3.184529 1.596358 1.596358 1.589195 3.191692 1.596358 3.185552 1.596358 3.191692 1.596358 3.184529 1.590218 3.191692 1.595334 3.185552 1.596358 3.191692 1.596358 3.191692 1.596358 4.780887 1.596358 3.191692 1.590218 3.185552 1.596358 4.780887 1.589195 3.191692 1.596358 3.191692 1.596358 4.780887 1.596358 4.780887 1.596358 3.191692 1.596358 4.780887 1.596358 4.780887 1.596358 4.787026 1.589195 4.780887 1.596358 6.377244 1.590218 4.787026 1.596358 6.377244 1.595334 6.376221 1.596358 6.377244 1.596358 6.376221 1.596358 7.973602 1.590218 7.972579 1.596358 9.568936 1.596358 11.158131 1.596358 12.760628 1.589195 20.727067 1.596358 52.617381 0 20.727067-1.596358 12.754488-1.589195 11.157107-1.596358 9.568936-1.596358 7.973602-1.596358 7.972579-1.590218 6.376221-1.596358 6.376221-1.596358 6.377244-1.596358 6.382361-1.595334 4.78191-1.596358 6.376221-1.590218 4.780887-1.596358 4.78805-1.589195 4.78191-1.596358 4.780887-1.596358 3.191692-1.596358 4.780887-1.596358 4.78805-1.596358 3.184529-1.596358 3.191692-1.596358 4.78191-1.589195 3.190669-1.596358 3.185552-1.590218 4.78805-1.596358 3.184529-1.596358 3.191692-1.596358 3.184529-1.596358 3.191692-1.595334 3.185552-1.590218 3.191692-1.596358 3.190669-1.596358 3.185552-1.596358 1.596358-1.589195 3.191692-1.596358 3.184529-1.596358 3.191692-1.596358 1.589195-1.596358 3.191692-1.596358 3.185552-1.589195 1.596358-1.596358 3.191692-1.590218 3.184529-1.596358 1.596358-1.596358 3.191692-1.596358 1.596358-1.596358 3.184529-1.595334 1.596358-1.596358 3.191692-1.590218 1.589195-1.596358 3.191692-1.589195 1.596358-1.596358 1.596358-1.596358 3.185552-1.596358 1.596358-1.596358 1.596358-1.596358 3.184529-1.589195 1.596358-1.596358 1.596358-1.596358 3.184529-1.596358 1.596358-1.590218 1.596358-1.596358 1.596358-1.596358 3.184529-1.596358 1.596358-1.596358 1.596358-1.595334 1.596358-1.590218 1.590218-1.596358 1.596358-1.589195 3.191692-1.596358 1.596358-1.596358 1.589195-1.596358 1.596358-1.596358 1.596358-1.596358 1.596358-1.596358 1.589195-1.596358 1.596358-1.589195 1.596358-1.596358 1.596358-1.590218 1.589195-1.596358 1.596358-1.596358 1.596358-1.596358 1.596358-1.596358 1.596358-1.596358 1.590218-1.589195 1.596358-1.596358 1.596358-1.596358 1.596358-1.596358 1.589195-1.589195 1.596358-1.596358 1.596358-1.596358 1.596358-1.596358 1.596358-1.596358 1.589195-1.596358 1.596358-3.184529 1.596358-1.590218 1.596358-1.596358 1.596358-1.596358 1.589195-1.596358 1.596358-1.596358 1.596358-3.191692 1.596358-1.589195 1.596358-1.596358 1.590218-1.596358 1.596358-3.184529 1.596358-1.596358 1.596358-1.596358 1.589195-3.191692 1.596358-1.589195 1.596358-1.596358 1.596358-3.185552 1.589195-1.596358 1.596358-1.596358 1.596358-3.191692 1.596358-1.596358 1.596358-3.184529 1.590218-1.596358 1.595334-3.184529 1.596358-1.596358 1.596358-3.191692 1.596358-1.596358 1.590218-3.184529 1.596358-1.596358 1.596358-3.185552 1.596358-3.191692 1.596358-3.191692 1.589195-1.589195 1.596358-3.191692 1.596358-3.184529 1.596358-3.191692 1.589195-1.596358 1.596358-3.191692 1.596358-3.184529 1.596358-3.185552 1.590218-3.191692 1.596358-3.191692 1.595334-3.184529 1.596358-3.191692 1.596358-3.184529 1.590218-4.78805 1.596358-3.185552 1.596358-3.190669 1.596358-4.78191 1.596358-3.191692 1.589195-3.191692 1.596358-4.773723 1.596358-4.78805 1.596358-3.191692 1.596358-4.780887 1.589195-4.78191 1.596358-4.78805 1.596358-4.780887 1.596358-6.376221 1.590218-4.78805 1.596358-6.371104 1.595334-6.383384 1.596358-6.376221 1.596358-6.376221 1.590218-7.972579 1.596358-7.973602 1.596358-9.561773 1.596358-11.165294 1.589195-14.3488 1.596358-19.130709 0-52.617381-1.596358-19.130709-1.589195-14.349823-1.596358-11.164271-1.596358-9.568936-1.596358-7.966439-1.590218-7.979742-1.596358-6.376221-1.596358-6.377244-1.595334-6.376221-1.596358-6.377244-1.590218-4.78805-1.596358-6.370081-1.596358-4.78805-1.596358-4.787026-1.589195-4.780887-1.596358-4.780887-1.596358-3.191692-1.596358-4.780887-1.596358-4.780887-1.589195-3.191692-1.596358-3.191692-1.596358-4.774747-1.596358-3.191692-1.596358-3.191692-1.590218-4.78805-1.596358-3.184529-1.596358-3.185552-1.595334-3.191692-1.596358-3.191692-1.590218-3.184529-1.596358-3.185552-1.596358-3.191692-1.596358-3.191692-1.589195-1.596358-1.596358-3.191692-1.596358-3.178389-1.596358-3.191692-1.589195-1.596358-1.596358-3.191692-1.596358-3.185552-1.596358-1.595334-1.596358-3.191692-1.590218-3.185552-1.596358-1.596358-1.596358-3.191692-1.596358-1.596358-1.595334-3.184529-1.590218-1.589195-1.596358-3.191692-1.596358-1.596358-1.596358-3.191692-1.596358-1.595334-1.589195-1.590218-1.596358-3.184529-1.596358-1.596358-1.596358-1.596358-1.589195-3.191692-1.596358-1.596358-1.596358-1.596358-1.596358-3.184529-1.590218-1.596358-1.596358-1.589195-1.596358-1.596358-1.596358-3.191692-1.596358-1.596358-1.589195-1.596358-1.596358-1.589195-1.596358-1.595334-1.596358-1.589195-1.596358-3.191692-1.589195-1.596358-1.596358-1.596358-1.596358-1.596358-1.596358-1.596358-1.596358-1.596358-1.589195-1.589195-1.596358-1.596358-1.596358-1.589195-1.596358-1.596358-1.590218-1.596358-1.596358-1.596358-1.596358-1.596358-1.596358-1.596358-1.596358-1.589195-1.589195-1.596358-1.596358-1.595334-1.596358-1.596358-1.596358-1.589195-1.589195-1.596358-1.596358-1.596358-1.596358-1.596358-1.596358-1.596358-1.589195-1.596358-1.596358-1.589195-3.191692-1.596358-1.596358-1.589195-1.590218-1.596358-1.596358-1.596358-1.596358-1.596358-1.596358-1.596358-3.184529-1.596358-1.596358-1.596358-1.596358-1.595334-1.596358-1.590218-3.184529-1.595334-1.596358-1.589195-1.596358-1.596358-3.184529-1.596358-1.596358-1.596358-1.596358-1.596358-3.185552-1.596358-1.596358-1.589195-1.596358-1.595334-3.191692-1.596358-1.589195-1.589195-3.191692-1.596358-1.596358-1.596358-3.184529-1.596358-1.596358-1.596358-3.191692-1.596358-1.596358-1.589195-3.184529-1.596358-3.191692-1.589195-1.596358-1.596358-3.185552-1.596358-3.191692-1.596358-1.589195-1.596358-3.191692-1.596358-3.184529-1.596358-3.191692-1.596358-1.596358-1.589195-3.185552-1.595334-3.190669-1.589195-3.191692-1.596358-3.185552-1.596358-3.191692-1.596358-3.184529-1.596358-3.191692-1.596358-3.184529-1.589195-4.78805-1.596358-3.185552-1.596358-3.190669-1.595334-4.78191-1.589195-3.191692-1.596358-3.184529-1.596358-4.78805-1.596358-4.780887-1.596358-3.191692-1.596358-4.780887-1.589195-4.78191-1.595334-4.78805-1.590218-4.780887-1.595334-6.376221-1.596358-4.78191-1.596358-6.382361-1.596358-6.377244-1.596358-6.376221-1.596358-6.376221-1.596358-7.972579-1.589195-7.973602-1.596358-9.568936-1.589195-11.157107-1.596358-12.754488-1.596358-20.727067-1.596358-52.617381 0L463.92661 63.021336z" p-id="2229" fill="#555555"></path></svg>