<?xml version="1.0" standalone="no"?><!DOCTYPE svg PUBLIC "-//W3C//DTD SVG 1.1//EN" "http://www.w3.org/Graphics/SVG/1.1/DTD/svg11.dtd"><svg t="1497443963066" class="icon" style="" viewBox="0 0 1024 1024" version="1.1" xmlns="http://www.w3.org/2000/svg" p-id="3508" xmlns:xlink="http://www.w3.org/1999/xlink" width="64" height="64"><defs><style type="text/css"></style></defs><path d="M127.96137 64.021106l0.202615 284.974403-0.202615 610.465592 523.902074 0.989537 0.036839-0.079818c129.107473-2.702552 239.429091-126.462227 242.060011-276.550547l0.193405 0 1.320065-619.800191L127.96137 64.020082zM229.812059 166.634158l117.776404 0 446.747857 0.340761-1.255597 476.702076L642.523729 643.676995l-57.016575 0 0 57.016575 0 156.689668-356.878037-0.683569 1.355881-505.673921L229.812059 166.634158zM654.208862 857.515245l-11.685133-0.022513L642.523729 700.69357 792.043091 700.69357C783.197632 783.811616 726.674291 854.859765 654.208862 857.515245z" p-id="3509" fill="#B9B9B9"></path><path d="M229.984998 351.025749 229.984998 351.025749 229.984998 351.027795Z" p-id="3510" fill="#B9B9B9"></path><path d="M415.484829 422.632623 415.484829 422.632623c52.786227 0 95.576799-42.791595 95.576799-95.576799l0-0.86981c0-52.785204-42.791595-95.576799-95.576799-95.576799l0 0c-52.785204 0-95.576799 42.791595-95.576799 95.576799l0 0.86981C319.90803 379.841028 362.698602 422.632623 415.484829 422.632623z" p-id="3511" fill="#B9B9B9"></path><path d="M320.060503 510.932692l383.877971 0 0 51.978838-383.877971 0 0-51.978838Z" p-id="3512" fill="#B9B9B9"></path><path d="M320.060503 643.676995l201.328331 0 0 51.978838-201.328331 0 0-51.978838Z" p-id="3513" fill="#B9B9B9"></path></svg>