<?xml version="1.0" standalone="no"?><!DOCTYPE svg PUBLIC "-//W3C//DTD SVG 1.1//EN" "http://www.w3.org/Graphics/SVG/1.1/DTD/svg11.dtd"><svg t="1497230642467" class="icon" style="" viewBox="0 0 1515 1024" version="1.1" xmlns="http://www.w3.org/2000/svg" p-id="4306" xmlns:xlink="http://www.w3.org/1999/xlink" width="71.015625" height="48"><defs><style type="text/css"></style></defs><path d="M1007.167123 286.85326c-5.709151-5.709151-12.189808-8.563726-19.427945-8.577753-1.536 0-3.808438 0.385753-6.866411 1.143233l-226.282959 55.99737 97.707836-264.57074c1.900712-3.808438 2.861589-7.231123 2.861589-10.282082 0-6.473644-2.482849-12.091616-7.434521-16.853918-4.951671-4.769315-11.046575-7.146959-18.277699-7.146959L642.019945 36.562411c-6.094904 0-11.425315 1.711342-15.998247 5.141041C621.448767 45.133151 618.397808 49.516712 616.875836 54.847123L502.019507 526.27989c-1.907726 9.138849 0.56811 16.57337 7.427507 22.289534 4.951671 4.201205 10.850192 6.284274 17.709589 6.284274 3.050959 0 5.337425-0.182356 6.859397-0.56811l231.999123-57.715726-112.569863 461.718795c-1.521973 6.094904-0.666301 11.811068 2.574027 17.134466 3.240329 5.344438 8.100822 8.956493 14.574466 10.864219 3.808438 0.750466 6.480658 1.136219 8.00263 1.136219 11.046575 0 19.042192-4.755288 24.000877-14.27989l308.567671-661.146301C1015.359123 302.851507 1014.033534 294.470137 1007.167123 286.85326z" p-id="4307" fill="#ffffff"></path></svg>