<?xml version="1.0" standalone="no"?><!DOCTYPE svg PUBLIC "-//W3C//DTD SVG 1.1//EN" "http://www.w3.org/Graphics/SVG/1.1/DTD/svg11.dtd"><svg t="1497420123535" class="icon" style="" viewBox="0 0 1024 1024" version="1.1" xmlns="http://www.w3.org/2000/svg" p-id="3831" xmlns:xlink="http://www.w3.org/1999/xlink" width="64" height="64"><defs><style type="text/css"></style></defs><path d="M532.864 661.408a31.968 31.968 0 1 0 45.248 45.248l189.024-194.016-189.024-194.016a32 32 0 0 0-45.248 45.248l115.744 115.744H32.16a32 32 0 0 0 0 64h618.432zM960.48 0h-576a64 64 0 0 0-64.032 64v288h64.448V103.04c0-21.376 17.344-38.72 38.72-38.72H920.32c21.408 0 38.72 17.344 38.72 38.72l1.024 818.304a38.72 38.72 0 0 1-38.72 38.72H423.648a38.72 38.72 0 0 1-38.72-38.72v-250.368l-64.448 0.096v288.96a64 64 0 0 0 64.032 64h576a64 64 0 0 0 64-64v-896a64 64 0 0 0-64-64z" fill="#ffffff" p-id="3832"></path></svg>