<?xml version="1.0" standalone="no"?><!DOCTYPE svg PUBLIC "-//W3C//DTD SVG 1.1//EN" "http://www.w3.org/Graphics/SVG/1.1/DTD/svg11.dtd"><svg t="1497443978096" class="icon" style="" viewBox="0 0 1024 1024" version="1.1" xmlns="http://www.w3.org/2000/svg" p-id="4202" xmlns:xlink="http://www.w3.org/1999/xlink" width="64" height="64"><defs><style type="text/css"></style></defs><path d="M804.901967 60.860565 220.152865 60.860565C132.814026 60.860565 61.763675 130.228423 61.763675 215.482885L61.763675 606.898771c0 85.240012 71.051255 154.60787 158.390094 154.60787l231.228603 0-0.416334 200.85341 220.605323-200.85341 133.330605 0c87.310843 0 158.362098-69.368762 158.362098-154.60787L963.264064 215.482885C963.263161 130.228423 892.212809 60.860565 804.901967 60.860565zM880.40465 606.898771c0 40.625488-33.892805 73.691948-75.503586 73.691948L669.738952 680.590718 512.514773 842.164274l-0.01445-161.573556L220.152865 680.590718c-41.636971 0-75.518036-33.065557-75.518036-73.691948L144.63483 215.482885c0-40.639938 33.881968-73.718138 75.518036-73.718138l584.748198 0c41.609878 0 75.503586 33.0782 75.503586 73.718138L880.40465 606.898771zM379.940973 405.552262c0 29.284236-23.745464 53.0297-53.0297 53.0297-29.286042 0-53.0297-23.745464-53.0297-53.0297 0-29.286042 23.743658-53.0297 53.0297-53.0297C356.195509 352.523465 379.940973 376.267123 379.940973 405.552262zM565.544473 405.552262c0 29.284236-23.745464 53.0297-53.0297 53.0297-29.286042 0-53.0297-23.745464-53.0297-53.0297 0-29.286042 23.743658-53.0297 53.0297-53.0297C541.799009 352.523465 565.544473 376.267123 565.544473 405.552262zM751.145263 405.552262c0 29.284236-23.743658 53.0297-53.027894 53.0297-29.286042 0-53.0297-23.745464-53.0297-53.0297 0-29.286042 23.743658-53.0297 53.0297-53.0297C727.401605 352.523465 751.145263 376.267123 751.145263 405.552262z" p-id="4203" fill="#B9B9B9"></path></svg>