<?xml version="1.0" standalone="no"?><!DOCTYPE svg PUBLIC "-//W3C//DTD SVG 1.1//EN" "http://www.w3.org/Graphics/SVG/1.1/DTD/svg11.dtd"><svg t="1497267835222" class="icon" style="" viewBox="0 0 1024 1024" version="1.1" xmlns="http://www.w3.org/2000/svg" p-id="15936" xmlns:xlink="http://www.w3.org/1999/xlink" width="48" height="48"><defs><style type="text/css"></style></defs><path d="M979.2 915.2c19.2 19.2 19.2 44.8 0 64-19.2 19.2-44.8 19.2-64 0l-403.2-403.2-403.2 403.2c-19.2 19.2-44.8 19.2-64 0-19.2-19.2-19.2-44.8 0-64l403.2-403.2-403.2-403.2c-19.2-19.2-19.2-44.8 0-64 19.2-19.2 44.8-19.2 64 0l403.2 403.2 403.2-403.2c19.2-19.2 44.8-19.2 64 0 19.2 19.2 19.2 44.8 0 64l-403.2 403.2 403.2 403.2z" p-id="15937" fill="#ffffff"></path></svg>