<?xml version="1.0" standalone="no"?><!DOCTYPE svg PUBLIC "-//W3C//DTD SVG 1.1//EN" "http://www.w3.org/Graphics/SVG/1.1/DTD/svg11.dtd"><svg t="1497420174739" class="icon" style="" viewBox="0 0 1024 1024" version="1.1" xmlns="http://www.w3.org/2000/svg" p-id="6455" xmlns:xlink="http://www.w3.org/1999/xlink" width="64" height="64"><defs><style type="text/css"></style></defs><path d="M512 518.4c-140.8 0-262.4-115.2-262.4-262.4C249.6 115.2 371.2 0 512 0c140.8 0 262.4 115.2 262.4 262.4C774.4 403.2 652.8 518.4 512 518.4zM512 57.6c-108.8 0-198.4 89.6-198.4 198.4 0 108.8 89.6 198.4 198.4 198.4 108.8 0 198.4-89.6 198.4-198.4C710.4 147.2 620.8 57.6 512 57.6z" p-id="6456" fill="#ffffff"></path><path d="M947.2 1024 76.8 1024l0-140.8C76.8 716.8 217.6 576 390.4 576l243.2 0c172.8 0 313.6 140.8 313.6 313.6L947.2 1024zM140.8 966.4l748.8 0 0-76.8c0-140.8-115.2-249.6-249.6-249.6L390.4 640c-140.8 0-249.6 115.2-249.6 249.6L140.8 966.4z" p-id="6457" fill="#ffffff"></path></svg>