<?xml version="1.0" standalone="no"?><!DOCTYPE svg PUBLIC "-//W3C//DTD SVG 1.1//EN" "http://www.w3.org/Graphics/SVG/1.1/DTD/svg11.dtd"><svg t="1497229402685" class="icon" style="" viewBox="0 0 1024 1024" version="1.1" xmlns="http://www.w3.org/2000/svg" p-id="1535" xmlns:xlink="http://www.w3.org/1999/xlink" width="48" height="48"><defs><style type="text/css"></style></defs><path d="M933.588339 815.261908 736.853629 618.529245c34.220383-55.431473 54.937217-120.153544 54.937217-190.122105 0-200.943568-162.897044-363.841635-363.840612-363.841635-200.943568 0-363.841635 162.898067-363.841635 363.841635 0 200.944592 162.898067 363.841635 363.841635 363.841635 69.969585 0 134.692678-20.772093 190.174294-54.991452l196.681498 196.788945c32.797987 32.797987 85.984327 32.797987 118.782314 0S966.386326 848.060919 933.588339 815.261908zM427.950234 680.296007c-139.119501 0-251.890914-112.826672-251.890914-251.888867 0-139.17476 112.771413-251.890914 251.890914-251.890914s251.890914 112.716154 251.890914 251.890914C679.840124 567.469336 567.068711 680.296007 427.950234 680.296007z" p-id="1536" fill="#ffffff"></path></svg>