<?xml version="1.0" standalone="no"?><!DOCTYPE svg PUBLIC "-//W3C//DTD SVG 1.1//EN" "http://www.w3.org/Graphics/SVG/1.1/DTD/svg11.dtd"><svg t="1497364285257" class="icon" style="" viewBox="0 0 1024 1024" version="1.1" xmlns="http://www.w3.org/2000/svg" p-id="5588" xmlns:xlink="http://www.w3.org/1999/xlink" width="64" height="64"><defs><style type="text/css"></style></defs><path d="M422.4 230.4h563.2c20.48 0 38.4-17.92 38.4-38.4S1006.08 153.6 985.6 153.6h-563.2c-20.48 0-38.4 17.92-38.4 38.4s17.92 38.4 38.4 38.4z m563.2 256h-563.2c-20.48 0-38.4 17.92-38.4 38.4s17.92 38.4 38.4 38.4h563.2c20.48 0 38.4-17.92 38.4-38.4S1006.08 486.4 985.6 486.4z m0 307.2h-563.2c-20.48 0-38.4 17.92-38.4 38.4s17.92 38.4 38.4 38.4h563.2c20.48 0 38.4-17.92 38.4-38.4S1006.08 793.6 985.6 793.6zM281.6 192c0-20.48-17.92-38.4-38.4-38.4s-38.4 17.92-38.4 38.4V588.8h-204.8s115.2 153.6 204.8 256c0 0 20.48 25.6 38.4 25.6s33.28-12.8 38.4-28.16V192z" fill="#ffffff" p-id="5589"></path></svg>