<?xml version="1.0" standalone="no"?><!DOCTYPE svg PUBLIC "-//W3C//DTD SVG 1.1//EN" "http://www.w3.org/Graphics/SVG/1.1/DTD/svg11.dtd"><svg t="1497267873428" class="icon" style="" viewBox="0 0 1024 1024" version="1.1" xmlns="http://www.w3.org/2000/svg" p-id="18843" xmlns:xlink="http://www.w3.org/1999/xlink" width="48" height="48"><defs><style type="text/css"></style></defs><path d="M864 704c-45.152 0-85.92 18.752-115.008 48.832l-431.008-215.488c1.312-8.256 2.016-16.704 2.016-25.312s-0.704-17.088-2.016-25.312l431.008-215.488c29.088 30.08 69.856 48.832 115.008 48.832 88.352 0 160-71.648 160-160s-71.648-160-160-160-160 71.648-160 160c0 8.608 0.704 17.088 2.016 25.312l-431.008 215.488c-29.088-30.08-69.856-48.832-115.008-48.832-88.352 0-160 71.648-160 160 0 88.352 71.648 160 160 160 45.152 0 85.92-18.752 115.008-48.832l431.008 215.488c-1.312 8.256-2.016 16.704-2.016 25.312 0 88.352 71.648 160 160 160s160-71.648 160-160c0-88.352-71.648-160-160-160z" p-id="18844" fill="#ffffff"></path></svg>