<?xml version="1.0" standalone="no"?><!DOCTYPE svg PUBLIC "-//W3C//DTD SVG 1.1//EN" "http://www.w3.org/Graphics/SVG/1.1/DTD/svg11.dtd"><svg t="1497410026152" class="icon" style="" viewBox="0 0 1024 1024" version="1.1" xmlns="http://www.w3.org/2000/svg" p-id="995" xmlns:xlink="http://www.w3.org/1999/xlink" width="64" height="64"><defs><style type="text/css"></style></defs><path d="M215.12605 408.739496 51.630252 408.739496C17.210084 408.739496 17.210084 443.159664 17.210084 443.159664L51.630252 989.579832c0 34.420168 34.420168 34.420168 34.420168 34.420168l141.983193 0c30.117647 0 30.117647-21.512605 30.117647-21.512605L258.151261 451.764706C253.848739 408.739496 215.12605 408.739496 215.12605 408.739496z" p-id="996" fill="#999999"></path><path d="M937.94958 408.739496l-271.058824 0C770.151261 21.512605 593.747899 0 593.747899 0c-77.445378 0-60.235294 60.235294-64.537815 68.840336 0 189.310924-202.218487 339.89916-202.218487 339.89916l0 542.117647c0 51.630252 73.142857 73.142857 103.260504 73.142857L834.689076 1024c38.722689 0 68.840336-98.957983 68.840336-98.957983 98.957983-344.201681 98.957983-447.462185 98.957983-447.462185C1006.789916 404.436975 937.94958 408.739496 937.94958 408.739496z" p-id="997" fill="#999999"></path></svg>