<?xml version="1.0" standalone="no"?><!DOCTYPE svg PUBLIC "-//W3C//DTD SVG 1.1//EN" "http://www.w3.org/Graphics/SVG/1.1/DTD/svg11.dtd"><svg t="1497233263377" class="icon" style="" viewBox="0 0 1024 1024" version="1.1" xmlns="http://www.w3.org/2000/svg" p-id="9837" xmlns:xlink="http://www.w3.org/1999/xlink" width="48" height="48"><defs><style type="text/css"></style></defs><path d="M205.6 827.328l594.944 0 0 118.976-594.944 0 0-118.976zM205.6 767.84l594.944 0c0 0 5.952-59.488 29.76-118.976 35.712-83.296 83.296-130.88 101.152-136.832 41.632-17.856 59.488-29.76 71.392-65.44s11.904-83.296-23.808-107.104c-35.712-29.76-101.152-17.856-124.928 11.904-23.808 35.712-23.808 59.488-23.808 77.344s-47.584 124.928-113.056 124.928c-53.536 0-154.688-172.544-148.736-232.032s41.632-77.344 41.632-136.832c0-59.488-29.76-107.104-101.152-107.104-77.344 0-101.152 59.488-101.152 113.056s35.712 77.344 35.712 130.88c0 47.584-77.344 237.984-148.736 237.984-59.488 0-107.104-77.344-113.056-118.976-5.952-35.712 11.904-53.536-5.952-89.248-23.808-41.632-77.344-53.536-113.056-29.76-35.712 17.856-53.536 77.344-23.808 113.056s41.632 35.712 59.488 53.536c17.856 11.904 107.104 160.64 107.104 279.616z" p-id="9838" fill="#ffffff"></path></svg>