<?xml version="1.0" standalone="no"?><!DOCTYPE svg PUBLIC "-//W3C//DTD SVG 1.1//EN" "http://www.w3.org/Graphics/SVG/1.1/DTD/svg11.dtd"><svg t="1497233322031" class="icon" style="" viewBox="0 0 1024 1024" version="1.1" xmlns="http://www.w3.org/2000/svg" p-id="11303" xmlns:xlink="http://www.w3.org/1999/xlink" width="48" height="48"><defs><style type="text/css"></style></defs><path d="M502.17 660.775c-20.921-26.46-39.207-39.515-84.573-43.969-8.212-1.511-14.178-8.6-14.178-16.97 0-6.16 20.184-24.6 19.952-24.795 20.959-21.074 32.115-55.206 32.115-81.472 0-40.833-36.183-74.576-83.99-74.576-48.7 0-83.993 33.743-83.993 74.576 0 26.46 11.004 60.746 31.924 81.862 0 0 20.146 18.245 20.146 24.404 0 8.756-6.702 16.194-15.65 17.319-44.438 4.493-62.375 17.55-83.062 43.621-5.812 7.632-9.182 22.741-9.337 30.762v35.06c0 15.457 12.861 27.972 28.747 27.972h222.491c15.883 0 28.745-12.515 28.745-27.971v-35.061c-0.195-8.02-3.372-23.13-9.337-30.762z m224-204.475h-93.327c-25.761 0-46.683 20.843-46.683 46.568s20.922 46.604 46.683 46.604h93.328c25.762 0 46.643-20.88 46.643-46.604S751.933 456.3 726.171 456.3z m0 167.75h-93.327c-25.761 0-46.683 20.882-46.683 46.604 0 25.725 20.922 46.607 46.683 46.607h93.328c25.762 0 46.643-20.882 46.643-46.607 0-25.722-20.881-46.604-46.643-46.604zM63.503 847.78c0 41.181 33.435 74.537 74.655 74.537h746.659c41.26 0 74.693-33.356 74.693-74.536V251.205c0-41.183-33.432-74.54-74.693-74.54H660.852v-33.587c0-22.703-18.323-40.99-41.104-40.99H403.224c-22.741 0-41.066 18.287-41.066 40.99v33.588H138.157c-41.22 0-74.655 33.356-74.655 74.54V847.78zM197.897 269.84H362.16v33.589c0 22.702 18.325 40.987 41.066 40.987h216.524c22.78 0 41.104-18.286 41.104-40.987v-33.59h164.263c22.742 0 41.066 18.287 41.066 41.027V788.12c0 22.74-18.324 40.987-41.066 40.987H197.897c-22.742 0-41.066-18.247-41.066-40.987V310.865c-0.001-22.74 18.324-41.026 41.066-41.026z" p-id="11304" fill="#ffffff"></path></svg>