<?xml version="1.0" standalone="no"?><!DOCTYPE svg PUBLIC "-//W3C//DTD SVG 1.1//EN" "http://www.w3.org/Graphics/SVG/1.1/DTD/svg11.dtd"><svg t="1497233229551" class="icon" style="" viewBox="0 0 1024 1024" version="1.1" xmlns="http://www.w3.org/2000/svg" p-id="9102" xmlns:xlink="http://www.w3.org/1999/xlink" width="48" height="48"><defs><style type="text/css"></style></defs><path d="M934.379355 683.389462c-13.003152 0-23.528879 12.395308-23.528879 27.709085l0 138.54645c0 30.578436-21.11183 55.419194-47.050596 55.419194L158.006152 905.06419c-25.963325 0-47.053666-24.840758-47.053666-55.419194L110.952486 184.623881c0-30.563086 21.091364-55.41817 47.053666-55.41817l258.789021 0c13.005198 0 23.526833-12.406564 23.526833-27.710109 0-15.301498-10.521634-27.708062-23.526833-27.708062L158.006152 73.78754c-51.901067 0-94.106308 49.721425-94.106308 110.836341l0 665.021116c0 61.099566 42.205241 110.839411 94.106308 110.839411l705.793728 0c51.901067 0 94.105285-49.739844 94.105285-110.839411L957.905164 711.09957C957.905164 695.785793 947.384553 683.389462 934.379355 683.389462zM952.160323 83.366709c-1.033539-1.406023-2.182712-2.705622-3.444449-3.841491-3.560082-3.233648-7.927553-5.27719-12.682857-5.669116-0.596588-0.040932-1.196245-0.067538-1.813299-0.067538L605.007789 73.788563c-13.005198 0-23.526833 12.406564-23.526833 27.708062 0 15.303544 10.521634 27.710109 23.526833 27.710109l272.576025 0-477.423507 562.301639c-9.18929 10.82351-9.18929 28.359908 0 39.184441 4.595668 5.411243 10.615779 8.117888 16.634866 8.117888 6.02011 0 12.040221-2.706645 16.634866-8.117888l477.419414-562.304709 0 321.039807c0 15.300474 10.525728 27.707039 23.528879 27.707039 13.005198 0 23.52581-12.406564 23.52581-27.707039L957.904141 101.495602c0-0.026606 0-0.066515 0-0.066515C957.881628 94.51563 955.721429 88.208994 952.160323 83.366709z" p-id="9103" fill="#1296db"></path></svg>